# Blender v2.92.0 OBJ File: 'CircleHolder.blend'
# www.blender.org
mtllib note1.mtl
o Circle
v 0.000001 0.000000 3.983867
v 0.777215 0.000000 3.907318
v 1.524562 0.000000 3.680612
v 2.213320 0.000000 3.312463
v 2.817021 0.000000 2.817018
v 0.000001 0.465135 3.983867
v 0.777215 0.465135 3.907318
v 1.524562 0.465135 3.680612
v 2.213320 0.465135 3.312463
v 2.817021 0.465135 2.817018
v 2.475351 0.000000 2.475348
v 2.475351 0.465135 2.475348
v 0.000001 0.000000 3.500673
v 0.682949 0.000000 3.433408
v 0.682949 0.465135 3.433408
v 1.339651 0.465135 3.234200
v 0.000001 0.465135 3.500673
v 1.944872 0.465135 2.910702
v 1.944872 0.000000 2.910702
v 1.339651 0.000000 3.234200
vt 0.000000 0.000000
vt 0.000000 0.000000
vt 0.000000 0.000000
vt 0.000000 0.000000
vt 0.000000 0.000000
vt 0.000000 0.000000
vt 0.000000 0.000000
vt 0.000000 0.000000
vt 0.000000 0.000000
vt 0.000000 0.000000
vt 0.000000 0.000000
vt 0.000000 0.000000
vt 0.000000 0.000000
vt 0.000000 0.000000
vt 0.000000 0.000000
vt 0.000000 0.000000
vt 0.000000 0.000000
vt 0.000000 0.000000
vt 0.000000 0.000000
vt 0.000000 0.000000
vn 0.0980 0.0000 0.9952
vn 0.2903 0.0000 0.9569
vn 0.4714 0.0000 0.8819
vn 0.6344 0.0000 0.7730
vn -0.0980 0.0000 -0.9952
vn -0.2903 0.0000 -0.9569
vn -0.4714 0.0000 -0.8819
vn -0.6344 0.0000 -0.7730
vn 0.0000 -1.0000 0.0000
vn 0.7071 0.0000 -0.7071
vn -1.0000 -0.0000 0.0000
vn 0.0000 1.0000 -0.0000
usemtl None
s off
f 1/1/1 2/2/1 7/3/1 6/4/1
f 2/2/2 3/5/2 8/6/2 7/3/2
f 3/5/3 4/7/3 9/8/3 8/6/3
f 4/7/4 5/9/4 10/10/4 9/8/4
f 14/11/5 13/12/5 17/13/5 15/14/5
f 16/15/6 20/16/6 14/11/6 15/14/6
f 16/15/7 18/17/7 19/18/7 20/16/7
f 18/17/8 12/19/8 11/20/8 19/18/8
f 1/1/9 13/12/9 14/11/9 20/16/9 3/5/9 2/2/9
f 3/5/9 20/16/9 19/18/9 11/20/9 5/9/9 4/7/9
f 10/10/10 5/9/10 11/20/10 12/19/10
f 1/1/11 6/4/11 17/13/11 13/12/11
f 7/3/12 8/6/12 16/15/12 15/14/12 17/13/12 6/4/12
f 9/8/12 10/10/12 12/19/12 18/17/12 16/15/12 8/6/12
