# Blender v2.92.0 OBJ File: 'CircleHolder.blend'
# www.blender.org
mtllib note8.mtl
o Circle
v -2.817019 0.000000 2.817019
v -2.213318 0.000000 3.312464
v -1.524559 0.000000 3.680614
v -0.777213 0.000000 3.907318
v 0.000001 0.000000 3.983867
v -2.817019 0.465135 2.817019
v -2.213318 0.465135 3.312464
v -1.524559 0.465135 3.680614
v -0.777213 0.465135 3.907318
v 0.000001 0.465135 3.983867
v -1.339649 0.000000 3.234200
v -1.339649 0.465135 3.234200
v -0.682947 0.000000 3.433409
v -0.682947 0.465135 3.433409
v -2.475350 0.465135 2.475350
v -1.944870 0.465135 2.910703
v 0.000001 0.000000 3.500673
v -2.475350 0.000000 2.475350
v -1.944870 0.000000 2.910703
v 0.000001 0.465135 3.500673
vt 0.000000 0.000000
vt 0.000000 0.000000
vt 0.000000 0.000000
vt 0.000000 0.000000
vt 0.000000 0.000000
vt 0.000000 0.000000
vt 0.000000 0.000000
vt 0.000000 0.000000
vt 0.000000 0.000000
vt 0.000000 0.000000
vt 0.000000 0.000000
vt 0.000000 0.000000
vt 0.000000 0.000000
vt 0.000000 0.000000
vt 0.000000 0.000000
vt 0.000000 0.000000
vt 0.000000 0.000000
vt 0.000000 0.000000
vt 0.000000 0.000000
vt 0.000000 0.000000
vn -0.4714 0.0000 0.8819
vn -0.2903 0.0000 0.9569
vn -0.0980 0.0000 0.9952
vn -0.6344 0.0000 0.7730
vn 0.0000 1.0000 -0.0000
vn 0.0000 -1.0000 0.0000
vn 0.6344 0.0000 -0.7730
vn 0.4714 0.0000 -0.8819
vn 0.2903 0.0000 -0.9569
vn 0.0980 0.0000 -0.9952
vn 1.0000 0.0000 -0.0000
vn -0.7071 0.0000 -0.7071
usemtl None
s off
f 2/1/1 3/2/1 8/3/1 7/4/1
f 3/2/2 4/5/2 9/6/2 8/3/2
f 4/5/3 5/7/3 10/8/3 9/6/3
f 1/9/4 2/1/4 7/4/4 6/10/4
f 7/4/5 8/3/5 9/6/5 10/8/5 20/11/5 14/12/5 12/13/5 16/14/5 15/15/5 6/10/5
f 1/9/6 18/16/6 19/17/6 11/18/6 13/19/6 17/20/6 5/7/6 4/5/6 3/2/6 2/1/6
f 15/15/7 16/14/7 19/17/7 18/16/7
f 16/14/8 12/13/8 11/18/8 19/17/8
f 11/18/9 12/13/9 14/12/9 13/19/9
f 13/19/10 14/12/10 20/11/10 17/20/10
f 5/7/11 17/20/11 20/11/11 10/8/11
f 1/9/12 6/10/12 15/15/12 18/16/12
