# Blender v2.92.0 OBJ File: 'CircleHolder.blend'
# www.blender.org
mtllib note2.mtl
o Circle
v 2.817021 0.000000 2.817018
v 3.312466 0.000000 2.213315
v 3.680614 0.000000 1.524557
v 3.907319 0.000000 0.777210
v 3.983867 0.000000 -0.000004
v 2.817021 0.465135 2.817018
v 3.312466 0.465135 2.213315
v 3.680614 0.465135 1.524557
v 3.907319 0.465135 0.777210
v 3.983867 0.465135 -0.000004
v 2.475351 0.000000 2.475348
v 2.475351 0.465135 2.475348
v 2.910705 0.000000 1.944868
v 2.910705 0.465135 1.944868
v 3.234201 0.000000 1.339647
v 3.234201 0.465135 1.339647
v 3.433409 0.000000 0.682944
v 3.433409 0.465135 0.682944
v 3.500673 0.000000 -0.000003
v 3.500673 0.465135 -0.000003
vt 0.000000 0.000000
vt 0.000000 0.000000
vt 0.000000 0.000000
vt 0.000000 0.000000
vt 0.000000 0.000000
vt 0.000000 0.000000
vt 0.000000 0.000000
vt 0.000000 0.000000
vt 0.000000 0.000000
vt 0.000000 0.000000
vt 0.000000 0.000000
vt 0.000000 0.000000
vt 0.000000 0.000000
vt 0.000000 0.000000
vt 0.000000 0.000000
vt 0.000000 0.000000
vt 0.000000 0.000000
vt 0.000000 0.000000
vt 0.000000 0.000000
vt 0.000000 0.000000
vn 0.7730 0.0000 0.6344
vn 0.8819 0.0000 0.4714
vn 0.9569 0.0000 0.2903
vn 0.9952 0.0000 0.0980
vn -0.7730 0.0000 -0.6344
vn -0.8819 0.0000 -0.4714
vn -0.9569 0.0000 -0.2903
vn -0.9952 0.0000 -0.0980
vn 0.0000 -1.0000 0.0000
vn -0.7071 0.0000 0.7071
vn -0.0000 0.0000 -1.0000
vn 0.0000 1.0000 0.0000
usemtl None
s off
f 1/1/1 2/2/1 7/3/1 6/4/1
f 2/2/2 3/5/2 8/6/2 7/3/2
f 3/5/3 4/7/3 9/8/3 8/6/3
f 4/7/4 5/9/4 10/10/4 9/8/4
f 13/11/5 11/12/5 12/13/5 14/14/5
f 15/15/6 13/11/6 14/14/6 16/16/6
f 18/17/7 17/18/7 15/15/7 16/16/7
f 17/18/8 18/17/8 20/19/8 19/20/8
f 3/5/9 15/15/9 17/18/9 19/20/9 5/9/9 4/7/9
f 1/1/9 11/12/9 13/11/9 15/15/9 3/5/9 2/2/9
f 6/4/10 12/13/10 11/12/10 1/1/10
f 5/9/11 19/20/11 20/19/11 10/10/11
f 7/3/12 8/6/12 16/16/12 14/14/12 12/13/12 6/4/12
f 9/8/12 10/10/12 20/19/12 18/17/12 16/16/12 8/6/12
